%TF.GenerationSoftware,KiCad,Pcbnew,10.0.1*%
%TF.CreationDate,2026-09-16T23:20:13+05:30*%
%TF.ProjectId,Sensor_Power_Baseboard,53656e73-6f72-45f5-906f-7765725f4261,rev?*%
%TF.SameCoordinates,Original*%
%TF.FileFunction,Soldermask,Top*%
%TF.FilePolarity,Negative*%
%FSLAX46Y46*%
G04 Gerber Fmt 4.6, Leading zero omitted, Abs format (unit mm)*
G04 Created by KiCad (PCBNEW 10.0.1) date 2026-09-16 23:20:13*
%MOMM*%
%LPD*%
G01*
G04 APERTURE LIST*
G04 Aperture macros list*
%AMRoundRect*
0 Rectangle with rounded corners*
0 $1 Rounding radius*
0 $2 $3 $4 $5 $6 $7 $8 $9 X,Y pos of 4 corners*
0 Add a 4 corners polygon primitive as box body*
4,1,4,$2,$3,$4,$5,$6,$7,$8,$9,$2,$3,0*
0 Add four circle primitives for the rounded corners*
1,1,$1+$1,$2,$3*
1,1,$1+$1,$4,$5*
1,1,$1+$1,$6,$7*
1,1,$1+$1,$8,$9*
0 Add four rect primitives between the rounded corners*
20,1,$1+$1,$2,$3,$4,$5,0*
20,1,$1+$1,$4,$5,$6,$7,0*
20,1,$1+$1,$6,$7,$8,$9,0*
20,1,$1+$1,$8,$9,$2,$3,0*%
G04 Aperture macros list end*
%ADD10RoundRect,0.250000X-0.250000X-0.475000X0.250000X-0.475000X0.250000X0.475000X-0.250000X0.475000X0*%
%ADD11C,0.650000*%
%ADD12RoundRect,0.150000X-0.575000X0.150000X-0.575000X-0.150000X0.575000X-0.150000X0.575000X0.150000X0*%
%ADD13RoundRect,0.075000X-0.650000X0.075000X-0.650000X-0.075000X0.650000X-0.075000X0.650000X0.075000X0*%
%ADD14O,2.100000X1.000000*%
%ADD15O,1.600000X1.000000*%
%ADD16RoundRect,0.250000X-0.262500X-0.450000X0.262500X-0.450000X0.262500X0.450000X-0.262500X0.450000X0*%
%ADD17RoundRect,0.250000X0.450000X-0.262500X0.450000X0.262500X-0.450000X0.262500X-0.450000X-0.262500X0*%
%ADD18RoundRect,0.375000X-0.625000X-0.375000X0.625000X-0.375000X0.625000X0.375000X-0.625000X0.375000X0*%
%ADD19RoundRect,0.500000X-0.500000X-1.400000X0.500000X-1.400000X0.500000X1.400000X-0.500000X1.400000X0*%
%ADD20RoundRect,0.243750X-0.243750X-0.456250X0.243750X-0.456250X0.243750X0.456250X-0.243750X0.456250X0*%
%ADD21RoundRect,0.250000X0.475000X-0.250000X0.475000X0.250000X-0.475000X0.250000X-0.475000X-0.250000X0*%
%ADD22R,1.700000X1.700000*%
%ADD23C,1.700000*%
G04 APERTURE END LIST*
D10*
%TO.C,C1*%
X76200000Y-78740000D03*
X78100000Y-78740000D03*
%TD*%
D11*
%TO.C,J1*%
X68640000Y-73310000D03*
X68640000Y-79090000D03*
D12*
X70085000Y-72950000D03*
X70085000Y-73750000D03*
D13*
X70085000Y-74950000D03*
X70085000Y-75950000D03*
X70085000Y-76450000D03*
X70085000Y-77450000D03*
D12*
X70085000Y-78650000D03*
X70085000Y-79450000D03*
X70085000Y-79450000D03*
X70085000Y-78650000D03*
D13*
X70085000Y-77950000D03*
X70085000Y-76950000D03*
X70085000Y-75450000D03*
X70085000Y-74450000D03*
D12*
X70085000Y-73750000D03*
X70085000Y-72950000D03*
D14*
X69170000Y-71880000D03*
D15*
X64990000Y-71880000D03*
D14*
X69170000Y-80520000D03*
D15*
X64990000Y-80520000D03*
%TD*%
D16*
%TO.C,R1*%
X76915000Y-68580000D03*
X78740000Y-68580000D03*
%TD*%
%TO.C,R2*%
X82907500Y-68580000D03*
X84732500Y-68580000D03*
%TD*%
D10*
%TO.C,C2*%
X76200000Y-81750000D03*
X78100000Y-81750000D03*
%TD*%
D17*
%TO.C,R4*%
X91440000Y-78740000D03*
X91440000Y-76915000D03*
%TD*%
D18*
%TO.C,U1*%
X81080000Y-73900000D03*
X81080000Y-76200000D03*
D19*
X87380000Y-76200000D03*
D18*
X81080000Y-78500000D03*
%TD*%
D20*
%TO.C,D1*%
X85422500Y-83820000D03*
X87297500Y-83820000D03*
%TD*%
D16*
%TO.C,R3*%
X89615000Y-84610000D03*
X91440000Y-84610000D03*
%TD*%
D21*
%TO.C,C4*%
X93980000Y-69530000D03*
X93980000Y-67630000D03*
%TD*%
%TO.C,C3*%
X90970000Y-69530000D03*
X90970000Y-67630000D03*
%TD*%
D17*
%TO.C,R5*%
X94390000Y-78740000D03*
X94390000Y-76915000D03*
%TD*%
D22*
%TO.C,OledScreen1*%
X101600000Y-71120000D03*
D23*
X101600000Y-73660000D03*
X101600000Y-76200000D03*
X101600000Y-78740000D03*
%TD*%
M02*
