%TF.GenerationSoftware,KiCad,Pcbnew,10.0.1*%
%TF.CreationDate,2026-09-16T23:20:13+05:30*%
%TF.ProjectId,Sensor_Power_Baseboard,53656e73-6f72-45f5-906f-7765725f4261,rev?*%
%TF.SameCoordinates,Original*%
%TF.FileFunction,Other,User*%
%FSLAX46Y46*%
G04 Gerber Fmt 4.6, Leading zero omitted, Abs format (unit mm)*
G04 Created by KiCad (PCBNEW 10.0.1) date 2026-09-16 23:20:13*
%MOMM*%
%LPD*%
G01*
G04 APERTURE LIST*
%ADD10C,0.050000*%
G04 APERTURE END LIST*
%TO.C,C1*%
D10*
X75450000Y-77760000D02*
X78850000Y-77760000D01*
X78850000Y-79720000D01*
X75450000Y-79720000D01*
X75450000Y-77760000D01*
%TO.C,J1*%
X61890000Y-70880000D02*
X61890000Y-81520000D01*
X71310000Y-70880000D02*
X61890000Y-70880000D01*
X71310000Y-70880000D02*
X71310000Y-81520000D01*
X71310000Y-81520000D02*
X61890000Y-81520000D01*
%TO.C,R1*%
X76147500Y-67630000D02*
X79507500Y-67630000D01*
X79507500Y-69530000D01*
X76147500Y-69530000D01*
X76147500Y-67630000D01*
%TO.C,R2*%
X82140000Y-67630000D02*
X85500000Y-67630000D01*
X85500000Y-69530000D01*
X82140000Y-69530000D01*
X82140000Y-67630000D01*
%TO.C,C2*%
X75450000Y-80770000D02*
X78850000Y-80770000D01*
X78850000Y-82730000D01*
X75450000Y-82730000D01*
X75450000Y-80770000D01*
%TO.C,R4*%
X90490000Y-76147500D02*
X92390000Y-76147500D01*
X92390000Y-79507500D01*
X90490000Y-79507500D01*
X90490000Y-76147500D01*
%TO.C,U1*%
X79830000Y-72600000D02*
X79830000Y-79800000D01*
X79830000Y-79800000D02*
X88630000Y-79800000D01*
X88630000Y-72600000D02*
X79830000Y-72600000D01*
X88630000Y-79800000D02*
X88630000Y-72600000D01*
%TO.C,D1*%
X84680000Y-82870000D02*
X88040000Y-82870000D01*
X88040000Y-84770000D01*
X84680000Y-84770000D01*
X84680000Y-82870000D01*
%TO.C,R3*%
X88847500Y-83660000D02*
X92207500Y-83660000D01*
X92207500Y-85560000D01*
X88847500Y-85560000D01*
X88847500Y-83660000D01*
%TO.C,C4*%
X93000000Y-66880000D02*
X94960000Y-66880000D01*
X94960000Y-70280000D01*
X93000000Y-70280000D01*
X93000000Y-66880000D01*
%TO.C,C3*%
X89990000Y-66880000D02*
X91950000Y-66880000D01*
X91950000Y-70280000D01*
X89990000Y-70280000D01*
X89990000Y-66880000D01*
%TO.C,R5*%
X93440000Y-76147500D02*
X95340000Y-76147500D01*
X95340000Y-79507500D01*
X93440000Y-79507500D01*
X93440000Y-76147500D01*
%TO.C,OledScreen1*%
X99830000Y-69350000D02*
X103370000Y-69350000D01*
X103370000Y-80510000D01*
X99830000Y-80510000D01*
X99830000Y-69350000D01*
%TD*%
M02*
