%TF.GenerationSoftware,KiCad,Pcbnew,10.0.1*%
%TF.CreationDate,2026-09-16T23:20:13+05:30*%
%TF.ProjectId,Sensor_Power_Baseboard,53656e73-6f72-45f5-906f-7765725f4261,rev?*%
%TF.SameCoordinates,Original*%
%TF.FileFunction,Copper,L2,Bot*%
%TF.FilePolarity,Positive*%
%FSLAX46Y46*%
G04 Gerber Fmt 4.6, Leading zero omitted, Abs format (unit mm)*
G04 Created by KiCad (PCBNEW 10.0.1) date 2026-09-16 23:20:13*
%MOMM*%
%LPD*%
G01*
G04 APERTURE LIST*
%TA.AperFunction,ComponentPad*%
%ADD10O,2.100000X1.000000*%
%TD*%
%TA.AperFunction,ComponentPad*%
%ADD11O,1.600000X1.000000*%
%TD*%
%TA.AperFunction,ComponentPad*%
%ADD12R,1.700000X1.700000*%
%TD*%
%TA.AperFunction,ComponentPad*%
%ADD13C,1.700000*%
%TD*%
%TA.AperFunction,Conductor*%
%ADD14C,0.200000*%
%TD*%
G04 APERTURE END LIST*
D10*
%TO.P,J1,SH,SHIELD_SH*%
%TO.N,GND*%
X69170000Y-71880000D03*
D11*
X64990000Y-71880000D03*
D10*
X69170000Y-80520000D03*
D11*
X64990000Y-80520000D03*
%TD*%
D12*
%TO.P,OledScreen1,1,Pin_1_1*%
%TO.N,+3V3*%
X101600000Y-71120000D03*
D13*
%TO.P,OledScreen1,2,Pin_2_2*%
%TO.N,GND*%
X101600000Y-73660000D03*
%TO.P,OledScreen1,3,Pin_3_3*%
%TO.N,/SDA*%
X101600000Y-76200000D03*
%TO.P,OledScreen1,4,Pin_4_4*%
%TO.N,/SCL*%
X101600000Y-78740000D03*
%TD*%
%TO.N,GND*%
D14*
X65450000Y-71880000D02*
X69630000Y-71880000D01*
X69630000Y-80520000D02*
X65450000Y-80520000D01*
%TD*%
%TA.AperFunction,Conductor*%
%TO.N,GND*%
G36*
X103582539Y-66560185D02*
G01*
X103628294Y-66612989D01*
X103639500Y-66664500D01*
X103639500Y-85735500D01*
X103619815Y-85802539D01*
X103567011Y-85848294D01*
X103515500Y-85859500D01*
X61584500Y-85859500D01*
X61517461Y-85839815D01*
X61471706Y-85787011D01*
X61460500Y-85735500D01*
X61460500Y-80270000D01*
X63720138Y-80270000D01*
X64523012Y-80270000D01*
X64505795Y-80279940D01*
X64449940Y-80335795D01*
X64410444Y-80404204D01*
X64390000Y-80480504D01*
X64390000Y-80559496D01*
X64410444Y-80635796D01*
X64449940Y-80704205D01*
X64505795Y-80760060D01*
X64523012Y-80770000D01*
X63720138Y-80770000D01*
X63728430Y-80811690D01*
X63728430Y-80811692D01*
X63803807Y-80993671D01*
X63803814Y-80993684D01*
X63913248Y-81157462D01*
X63913251Y-81157466D01*
X64052533Y-81296748D01*
X64052537Y-81296751D01*
X64216315Y-81406185D01*
X64216328Y-81406192D01*
X64398306Y-81481569D01*
X64398318Y-81481572D01*
X64591504Y-81519999D01*
X64591508Y-81520000D01*
X64740000Y-81520000D01*
X64740000Y-80820000D01*
X65240000Y-80820000D01*
X65240000Y-81520000D01*
X65388492Y-81520000D01*
X65388495Y-81519999D01*
X65581681Y-81481572D01*
X65581693Y-81481569D01*
X65763671Y-81406192D01*
X65763684Y-81406185D01*
X65927462Y-81296751D01*
X65927466Y-81296748D01*
X66066748Y-81157466D01*
X66066751Y-81157462D01*
X66176185Y-80993684D01*
X66176192Y-80993671D01*
X66251569Y-80811692D01*
X66251569Y-80811690D01*
X66259862Y-80770000D01*
X65456988Y-80770000D01*
X65474205Y-80760060D01*
X65530060Y-80704205D01*
X65569556Y-80635796D01*
X65590000Y-80559496D01*
X65590000Y-80480504D01*
X65569556Y-80404204D01*
X65530060Y-80335795D01*
X65474205Y-80279940D01*
X65456988Y-80270000D01*
X66259862Y-80270000D01*
X67650138Y-80270000D01*
X68453012Y-80270000D01*
X68435795Y-80279940D01*
X68379940Y-80335795D01*
X68340444Y-80404204D01*
X68320000Y-80480504D01*
X68320000Y-80559496D01*
X68340444Y-80635796D01*
X68379940Y-80704205D01*
X68435795Y-80760060D01*
X68453012Y-80770000D01*
X67650138Y-80770000D01*
X67658430Y-80811690D01*
X67658430Y-80811692D01*
X67733807Y-80993671D01*
X67733814Y-80993684D01*
X67843248Y-81157462D01*
X67843251Y-81157466D01*
X67982533Y-81296748D01*
X67982537Y-81296751D01*
X68146315Y-81406185D01*
X68146328Y-81406192D01*
X68328306Y-81481569D01*
X68328318Y-81481572D01*
X68521504Y-81519999D01*
X68521508Y-81520000D01*
X68920000Y-81520000D01*
X68920000Y-80820000D01*
X69420000Y-80820000D01*
X69420000Y-81520000D01*
X69818492Y-81520000D01*
X69818495Y-81519999D01*
X70011681Y-81481572D01*
X70011693Y-81481569D01*
X70193671Y-81406192D01*
X70193684Y-81406185D01*
X70357462Y-81296751D01*
X70357466Y-81296748D01*
X70496748Y-81157466D01*
X70496751Y-81157462D01*
X70606185Y-80993684D01*
X70606192Y-80993671D01*
X70681569Y-80811692D01*
X70681569Y-80811690D01*
X70689862Y-80770000D01*
X69886988Y-80770000D01*
X69904205Y-80760060D01*
X69960060Y-80704205D01*
X69999556Y-80635796D01*
X70020000Y-80559496D01*
X70020000Y-80480504D01*
X69999556Y-80404204D01*
X69960060Y-80335795D01*
X69904205Y-80279940D01*
X69886988Y-80270000D01*
X70689862Y-80270000D01*
X70681569Y-80228309D01*
X70681569Y-80228307D01*
X70606192Y-80046328D01*
X70606185Y-80046315D01*
X70496751Y-79882537D01*
X70496748Y-79882533D01*
X70357466Y-79743251D01*
X70357462Y-79743248D01*
X70193684Y-79633814D01*
X70193671Y-79633807D01*
X70011693Y-79558430D01*
X70011681Y-79558427D01*
X69818495Y-79520000D01*
X69420000Y-79520000D01*
X69420000Y-80220000D01*
X68920000Y-80220000D01*
X68920000Y-79664463D01*
X68939685Y-79597424D01*
X68982000Y-79557076D01*
X68993365Y-79550515D01*
X69100515Y-79443365D01*
X69101372Y-79441879D01*
X69121721Y-79406637D01*
X69176279Y-79312138D01*
X69176281Y-79312135D01*
X69215500Y-79165766D01*
X69215500Y-79014234D01*
X69176281Y-78867865D01*
X69100515Y-78736635D01*
X68993365Y-78629485D01*
X68927750Y-78591602D01*
X68862136Y-78553719D01*
X68788950Y-78534109D01*
X68715766Y-78514500D01*
X68564234Y-78514500D01*
X68417863Y-78553719D01*
X68286635Y-78629485D01*
X68286632Y-78629487D01*
X68179487Y-78736632D01*
X68179485Y-78736635D01*
X68103719Y-78867863D01*
X68064500Y-79014234D01*
X68064500Y-79165765D01*
X68103719Y-79312136D01*
X68141602Y-79377750D01*
X68179485Y-79443365D01*
X68179487Y-79443367D01*
X68184432Y-79449811D01*
X68181612Y-79451974D01*
X68207302Y-79499020D01*
X68202318Y-79568712D01*
X68160446Y-79624645D01*
X68151379Y-79630416D01*
X68151387Y-79630427D01*
X67982536Y-79743248D01*
X67843251Y-79882533D01*
X67843248Y-79882537D01*
X67733814Y-80046315D01*
X67733807Y-80046328D01*
X67658430Y-80228307D01*
X67658430Y-80228309D01*
X67650138Y-80270000D01*
X66259862Y-80270000D01*
X66251569Y-80228309D01*
X66251569Y-80228307D01*
X66176192Y-80046328D01*
X66176185Y-80046315D01*
X66066751Y-79882537D01*
X66066748Y-79882533D01*
X65927466Y-79743251D01*
X65927462Y-79743248D01*
X65763684Y-79633814D01*
X65763671Y-79633807D01*
X65581693Y-79558430D01*
X65581681Y-79558427D01*
X65388495Y-79520000D01*
X65240000Y-79520000D01*
X65240000Y-80220000D01*
X64740000Y-80220000D01*
X64740000Y-79520000D01*
X64591504Y-79520000D01*
X64398318Y-79558427D01*
X64398306Y-79558430D01*
X64216328Y-79633807D01*
X64216315Y-79633814D01*
X64052537Y-79743248D01*
X64052533Y-79743251D01*
X63913251Y-79882533D01*
X63913248Y-79882537D01*
X63803814Y-80046315D01*
X63803807Y-80046328D01*
X63728430Y-80228307D01*
X63728430Y-80228309D01*
X63720138Y-80270000D01*
X61460500Y-80270000D01*
X61460500Y-71630000D01*
X63720138Y-71630000D01*
X64523012Y-71630000D01*
X64505795Y-71639940D01*
X64449940Y-71695795D01*
X64410444Y-71764204D01*
X64390000Y-71840504D01*
X64390000Y-71919496D01*
X64410444Y-71995796D01*
X64449940Y-72064205D01*
X64505795Y-72120060D01*
X64523012Y-72130000D01*
X63720138Y-72130000D01*
X63728430Y-72171690D01*
X63728430Y-72171692D01*
X63803807Y-72353671D01*
X63803814Y-72353684D01*
X63913248Y-72517462D01*
X63913251Y-72517466D01*
X64052533Y-72656748D01*
X64052537Y-72656751D01*
X64216315Y-72766185D01*
X64216328Y-72766192D01*
X64398306Y-72841569D01*
X64398318Y-72841572D01*
X64591504Y-72879999D01*
X64591508Y-72880000D01*
X64740000Y-72880000D01*
X64740000Y-72180000D01*
X65240000Y-72180000D01*
X65240000Y-72880000D01*
X65388492Y-72880000D01*
X65388495Y-72879999D01*
X65581681Y-72841572D01*
X65581693Y-72841569D01*
X65763671Y-72766192D01*
X65763684Y-72766185D01*
X65927462Y-72656751D01*
X65927466Y-72656748D01*
X66066748Y-72517466D01*
X66066751Y-72517462D01*
X66176185Y-72353684D01*
X66176192Y-72353671D01*
X66251569Y-72171692D01*
X66251569Y-72171690D01*
X66259862Y-72130000D01*
X65456988Y-72130000D01*
X65474205Y-72120060D01*
X65530060Y-72064205D01*
X65569556Y-71995796D01*
X65590000Y-71919496D01*
X65590000Y-71840504D01*
X65569556Y-71764204D01*
X65530060Y-71695795D01*
X65474205Y-71639940D01*
X65456988Y-71630000D01*
X66259862Y-71630000D01*
X67650138Y-71630000D01*
X68453012Y-71630000D01*
X68435795Y-71639940D01*
X68379940Y-71695795D01*
X68340444Y-71764204D01*
X68320000Y-71840504D01*
X68320000Y-71919496D01*
X68340444Y-71995796D01*
X68379940Y-72064205D01*
X68435795Y-72120060D01*
X68453012Y-72130000D01*
X67650138Y-72130000D01*
X67658430Y-72171690D01*
X67658430Y-72171692D01*
X67733807Y-72353671D01*
X67733814Y-72353684D01*
X67843248Y-72517462D01*
X67843251Y-72517466D01*
X67982533Y-72656748D01*
X67982537Y-72656751D01*
X68151387Y-72769574D01*
X68150430Y-72771005D01*
X68194425Y-72814211D01*
X68209895Y-72882346D01*
X68186072Y-72948029D01*
X68184309Y-72950094D01*
X68184432Y-72950189D01*
X68179485Y-72956635D01*
X68103719Y-73087863D01*
X68064500Y-73234234D01*
X68064500Y-73385765D01*
X68103719Y-73532136D01*
X68116200Y-73553753D01*
X68179485Y-73663365D01*
X68286635Y-73770515D01*
X68417865Y-73846281D01*
X68564234Y-73885500D01*
X68564236Y-73885500D01*
X68715764Y-73885500D01*
X68715766Y-73885500D01*
X68862135Y-73846281D01*
X68993365Y-73770515D01*
X69100515Y-73663365D01*
X69176281Y-73532135D01*
X69215500Y-73385766D01*
X69215500Y-73234234D01*
X69176281Y-73087865D01*
X69100515Y-72956635D01*
X68993365Y-72849485D01*
X68981998Y-72842922D01*
X68933783Y-72792354D01*
X68920000Y-72735536D01*
X68920000Y-72180000D01*
X69420000Y-72180000D01*
X69420000Y-72880000D01*
X69818492Y-72880000D01*
X69818495Y-72879999D01*
X70011681Y-72841572D01*
X70011693Y-72841569D01*
X70193671Y-72766192D01*
X70193684Y-72766185D01*
X70357462Y-72656751D01*
X70357466Y-72656748D01*
X70496748Y-72517466D01*
X70496751Y-72517462D01*
X70606185Y-72353684D01*
X70606192Y-72353671D01*
X70681569Y-72171692D01*
X70681569Y-72171690D01*
X70689862Y-72130000D01*
X69886988Y-72130000D01*
X69904205Y-72120060D01*
X69960060Y-72064205D01*
X69999556Y-71995796D01*
X70020000Y-71919496D01*
X70020000Y-71840504D01*
X69999556Y-71764204D01*
X69960060Y-71695795D01*
X69904205Y-71639940D01*
X69886988Y-71630000D01*
X70689862Y-71630000D01*
X70681569Y-71588309D01*
X70681569Y-71588307D01*
X70606192Y-71406328D01*
X70606185Y-71406315D01*
X70496751Y-71242537D01*
X70496748Y-71242533D01*
X70357466Y-71103251D01*
X70357462Y-71103248D01*
X70193684Y-70993814D01*
X70193671Y-70993807D01*
X70011693Y-70918430D01*
X70011681Y-70918427D01*
X69818495Y-70880000D01*
X69420000Y-70880000D01*
X69420000Y-71580000D01*
X68920000Y-71580000D01*
X68920000Y-70880000D01*
X68521504Y-70880000D01*
X68328318Y-70918427D01*
X68328306Y-70918430D01*
X68146328Y-70993807D01*
X68146315Y-70993814D01*
X67982537Y-71103248D01*
X67982533Y-71103251D01*
X67843251Y-71242533D01*
X67843248Y-71242537D01*
X67733814Y-71406315D01*
X67733807Y-71406328D01*
X67658430Y-71588307D01*
X67658430Y-71588309D01*
X67650138Y-71630000D01*
X66259862Y-71630000D01*
X66251569Y-71588309D01*
X66251569Y-71588307D01*
X66176192Y-71406328D01*
X66176185Y-71406315D01*
X66066751Y-71242537D01*
X66066748Y-71242533D01*
X65927466Y-71103251D01*
X65927462Y-71103248D01*
X65763684Y-70993814D01*
X65763671Y-70993807D01*
X65581693Y-70918430D01*
X65581681Y-70918427D01*
X65388495Y-70880000D01*
X65240000Y-70880000D01*
X65240000Y-71580000D01*
X64740000Y-71580000D01*
X64740000Y-70880000D01*
X64591504Y-70880000D01*
X64398318Y-70918427D01*
X64398306Y-70918430D01*
X64216328Y-70993807D01*
X64216315Y-70993814D01*
X64052537Y-71103248D01*
X64052533Y-71103251D01*
X63913251Y-71242533D01*
X63913248Y-71242537D01*
X63803814Y-71406315D01*
X63803807Y-71406328D01*
X63728430Y-71588307D01*
X63728430Y-71588309D01*
X63720138Y-71630000D01*
X61460500Y-71630000D01*
X61460500Y-70222135D01*
X100249500Y-70222135D01*
X100249500Y-72017870D01*
X100249501Y-72017876D01*
X100255908Y-72077483D01*
X100306202Y-72212328D01*
X100306206Y-72212335D01*
X100392452Y-72327544D01*
X100392455Y-72327547D01*
X100507664Y-72413793D01*
X100507671Y-72413797D01*
X100552618Y-72430561D01*
X100642517Y-72464091D01*
X100702127Y-72470500D01*
X100712685Y-72470499D01*
X100779723Y-72490179D01*
X100800372Y-72506818D01*
X101470591Y-73177037D01*
X101407007Y-73194075D01*
X101292993Y-73259901D01*
X101199901Y-73352993D01*
X101134075Y-73467007D01*
X101117037Y-73530591D01*
X100484728Y-72898282D01*
X100484727Y-72898282D01*
X100445380Y-72952439D01*
X100348904Y-73141782D01*
X100283242Y-73343869D01*
X100283242Y-73343872D01*
X100250000Y-73553753D01*
X100250000Y-73766246D01*
X100283242Y-73976127D01*
X100283242Y-73976130D01*
X100348904Y-74178217D01*
X100445375Y-74367550D01*
X100484728Y-74421716D01*
X101117037Y-73789408D01*
X101134075Y-73852993D01*
X101199901Y-73967007D01*
X101292993Y-74060099D01*
X101407007Y-74125925D01*
X101470590Y-74142962D01*
X100838282Y-74775269D01*
X100838282Y-74775270D01*
X100892452Y-74814626D01*
X100892451Y-74814626D01*
X100901495Y-74819234D01*
X100952292Y-74867208D01*
X100969087Y-74935029D01*
X100946550Y-75001164D01*
X100901499Y-75040202D01*
X100892182Y-75044949D01*
X100720213Y-75169890D01*
X100569890Y-75320213D01*
X100444951Y-75492179D01*
X100348444Y-75681585D01*
X100282753Y-75883760D01*
X100249500Y-76093713D01*
X100249500Y-76306286D01*
X100282753Y-76516239D01*
X100348444Y-76718414D01*
X100444951Y-76907820D01*
X100569890Y-77079786D01*
X100720213Y-77230109D01*
X100892182Y-77355050D01*
X100900946Y-77359516D01*
X100951742Y-77407491D01*
X100968536Y-77475312D01*
X100945998Y-77541447D01*
X100900946Y-77580484D01*
X100892182Y-77584949D01*
X100720213Y-77709890D01*
X100569890Y-77860213D01*
X100444951Y-78032179D01*
X100348444Y-78221585D01*
X100282753Y-78423760D01*
X100249500Y-78633713D01*
X100249500Y-78846286D01*
X100276100Y-79014236D01*
X100282754Y-79056243D01*
X100318340Y-79165766D01*
X100348444Y-79258414D01*
X100444951Y-79447820D01*
X100569890Y-79619786D01*
X100720213Y-79770109D01*
X100892179Y-79895048D01*
X100892181Y-79895049D01*
X100892184Y-79895051D01*
X101081588Y-79991557D01*
X101283757Y-80057246D01*
X101493713Y-80090500D01*
X101493714Y-80090500D01*
X101706286Y-80090500D01*
X101706287Y-80090500D01*
X101916243Y-80057246D01*
X102118412Y-79991557D01*
X102307816Y-79895051D01*
X102329789Y-79879086D01*
X102479786Y-79770109D01*
X102479788Y-79770106D01*
X102479792Y-79770104D01*
X102630104Y-79619792D01*
X102630106Y-79619788D01*
X102630109Y-79619786D01*
X102752030Y-79451974D01*
X102755051Y-79447816D01*
X102851557Y-79258412D01*
X102917246Y-79056243D01*
X102950500Y-78846287D01*
X102950500Y-78633713D01*
X102917246Y-78423757D01*
X102851557Y-78221588D01*
X102755051Y-78032184D01*
X102755049Y-78032181D01*
X102755048Y-78032179D01*
X102630109Y-77860213D01*
X102479786Y-77709890D01*
X102307820Y-77584951D01*
X102307115Y-77584591D01*
X102299054Y-77580485D01*
X102248259Y-77532512D01*
X102231463Y-77464692D01*
X102253999Y-77398556D01*
X102299054Y-77359515D01*
X102307816Y-77355051D01*
X102329789Y-77339086D01*
X102479786Y-77230109D01*
X102479788Y-77230106D01*
X102479792Y-77230104D01*
X102630104Y-77079792D01*
X102630106Y-77079788D01*
X102630109Y-77079786D01*
X102755048Y-76907820D01*
X102755047Y-76907820D01*
X102755051Y-76907816D01*
X102851557Y-76718412D01*
X102917246Y-76516243D01*
X102950500Y-76306287D01*
X102950500Y-76093713D01*
X102917246Y-75883757D01*
X102851557Y-75681588D01*
X102755051Y-75492184D01*
X102755049Y-75492181D01*
X102755048Y-75492179D01*
X102630109Y-75320213D01*
X102479786Y-75169890D01*
X102307817Y-75044949D01*
X102298504Y-75040204D01*
X102247707Y-74992230D01*
X102230912Y-74924409D01*
X102253449Y-74858274D01*
X102298507Y-74819232D01*
X102307555Y-74814622D01*
X102361716Y-74775270D01*
X102361717Y-74775270D01*
X101729408Y-74142962D01*
X101792993Y-74125925D01*
X101907007Y-74060099D01*
X102000099Y-73967007D01*
X102065925Y-73852993D01*
X102082962Y-73789409D01*
X102715270Y-74421717D01*
X102715270Y-74421716D01*
X102754622Y-74367554D01*
X102851095Y-74178217D01*
X102916757Y-73976130D01*
X102916757Y-73976127D01*
X102950000Y-73766246D01*
X102950000Y-73553753D01*
X102916757Y-73343872D01*
X102916757Y-73343869D01*
X102851095Y-73141782D01*
X102754624Y-72952449D01*
X102715270Y-72898282D01*
X102715269Y-72898282D01*
X102082962Y-73530590D01*
X102065925Y-73467007D01*
X102000099Y-73352993D01*
X101907007Y-73259901D01*
X101792993Y-73194075D01*
X101729409Y-73177037D01*
X102399627Y-72506818D01*
X102460950Y-72473333D01*
X102487307Y-72470499D01*
X102497872Y-72470499D01*
X102557483Y-72464091D01*
X102692331Y-72413796D01*
X102807546Y-72327546D01*
X102893796Y-72212331D01*
X102944091Y-72077483D01*
X102950500Y-72017873D01*
X102950499Y-70222128D01*
X102944091Y-70162517D01*
X102893796Y-70027669D01*
X102893795Y-70027668D01*
X102893793Y-70027664D01*
X102807547Y-69912455D01*
X102807544Y-69912452D01*
X102692335Y-69826206D01*
X102692328Y-69826202D01*
X102557482Y-69775908D01*
X102557483Y-69775908D01*
X102497883Y-69769501D01*
X102497881Y-69769500D01*
X102497873Y-69769500D01*
X102497864Y-69769500D01*
X100702129Y-69769500D01*
X100702123Y-69769501D01*
X100642516Y-69775908D01*
X100507671Y-69826202D01*
X100507664Y-69826206D01*
X100392455Y-69912452D01*
X100392452Y-69912455D01*
X100306206Y-70027664D01*
X100306202Y-70027671D01*
X100255908Y-70162517D01*
X100249501Y-70222116D01*
X100249501Y-70222123D01*
X100249500Y-70222135D01*
X61460500Y-70222135D01*
X61460500Y-66664500D01*
X61480185Y-66597461D01*
X61532989Y-66551706D01*
X61584500Y-66540500D01*
X103515500Y-66540500D01*
X103582539Y-66560185D01*
G37*
%TD.AperFunction*%
%TD*%
M02*
